<svg width="18" height="18" viewBox="0 0 18 18" fill="none" xmlns="http://www.w3.org/2000/svg">
<path d="M17.9742 6.93483C17.9121 6.74389 17.7472 6.60475 17.5485 6.57592L11.9684 5.76504L9.47289 0.708644C9.38408 0.528644 9.20075 0.414703 9.00004 0.414703C8.7993 0.414703 8.61599 0.528644 8.52715 0.708644L6.03149 5.76504L0.451513 6.57592C0.252916 6.60475 0.0878581 6.74389 0.0258427 6.93479C-0.0362078 7.12573 0.015542 7.33529 0.159295 7.47539L4.19691 11.4113L3.24389 16.9688C3.20993 17.1667 3.29128 17.3666 3.45367 17.4846C3.54553 17.5513 3.65434 17.5853 3.76368 17.5853C3.84763 17.5853 3.93186 17.5653 4.009 17.5247L9 14.9007L13.9908 17.5247C14.1685 17.6181 14.3838 17.6026 14.5462 17.4846C14.7085 17.3666 14.7899 17.1666 14.756 16.9688L13.8027 11.4113L17.8407 7.47535C17.9845 7.33529 18.0363 7.12572 17.9742 6.93483Z" fill="#FBB605"/>
</svg>
